<?xml version="1.0" encoding="UTF-8" standalone="no"?>
<svg
   id="Layer_1"
   data-name="Layer 1"
   viewBox="0 0 24 24"
   width="512"
   height="512"
   version="1.1"
   sodipodi:docname="Password.svg"
   inkscape:version="1.3.2 (091e20ef0f, 2023-11-25)"
   xmlns:inkscape="http://www.inkscape.org/namespaces/inkscape"
   xmlns:sodipodi="http://sodipodi.sourceforge.net/DTD/sodipodi-0.dtd"
   xmlns="http://www.w3.org/2000/svg"
   xmlns:svg="http://www.w3.org/2000/svg">
  <defs
     id="defs1" />
  <sodipodi:namedview
     id="namedview1"
     pagecolor="#666666"
     bordercolor="#000000"
     borderopacity="0.25"
     inkscape:showpageshadow="2"
     inkscape:pageopacity="0.0"
     inkscape:pagecheckerboard="0"
     inkscape:deskcolor="#d1d1d1"
     inkscape:zoom="2.265625"
     inkscape:cx="255.77931"
     inkscape:cy="256"
     inkscape:window-width="2256"
     inkscape:window-height="1430"
     inkscape:window-x="0"
     inkscape:window-y="0"
     inkscape:window-maximized="1"
     inkscape:current-layer="Layer_1" />
  <path
     d="m 23.821,11.181 v 0 C 22.943,9.261 19.5,3 12,3 4.5,3 1.057,9.261 0.179,11.181 a 1.969,1.969 0 0 0 0,1.64 C 1.057,14.739 4.5,21 12,21 c 7.5,0 10.943,-6.261 11.821,-8.181 a 1.968,1.968 0 0 0 0,-1.638 z M 12,18 a 6,6 0 1 1 6,-6 6.006,6.006 0 0 1 -6,6 z"
     id="path1"
     style="fill:#ffffff" />
  <circle
     cx="12"
     cy="12"
     r="4"
     id="circle1"
     style="fill:#ffffff" />
</svg>
