<?xml version="1.0" encoding="UTF-8" standalone="no"?>
<!-- Generator: Adobe Illustrator 25.0.0, SVG Export Plug-In . SVG Version: 6.00 Build 0)  -->

<svg
   version="1.1"
   id="Capa_1"
   x="0px"
   y="0px"
   viewBox="0 0 512.19 512.19"
   style="enable-background:new 0 0 512.19 512.19;"
   xml:space="preserve"
   width="512"
   height="512"
   sodipodi:docname="Password2.svg"
   inkscape:version="1.3.2 (091e20ef0f, 2023-11-25)"
   xmlns:inkscape="http://www.inkscape.org/namespaces/inkscape"
   xmlns:sodipodi="http://sodipodi.sourceforge.net/DTD/sodipodi-0.dtd"
   xmlns="http://www.w3.org/2000/svg"
   xmlns:svg="http://www.w3.org/2000/svg"><defs
   id="defs1" /><sodipodi:namedview
   id="namedview1"
   pagecolor="#666666"
   bordercolor="#000000"
   borderopacity="0.25"
   inkscape:showpageshadow="2"
   inkscape:pageopacity="0.0"
   inkscape:pagecheckerboard="0"
   inkscape:deskcolor="#d1d1d1"
   inkscape:zoom="2.265625"
   inkscape:cx="255.77931"
   inkscape:cy="256"
   inkscape:window-width="2256"
   inkscape:window-height="1430"
   inkscape:window-x="0"
   inkscape:window-y="0"
   inkscape:window-maximized="1"
   inkscape:current-layer="Capa_1" />
<g
   id="g1">
	<path
   d="m 496.543,200.771 c -19.259,-31.537 -43.552,-59.707 -71.915,-83.392 l 59.733,-59.733 c 8.185,-8.475 7.95,-21.98 -0.525,-30.165 -8.267,-7.985 -21.374,-7.985 -29.641,0 l -64.96,65.045 C 348.966,68.608 302.929,56.141 256.094,56.473 c -132.075,0 -207.339,90.411 -240.448,144.299 -20.862,33.743 -20.862,76.379 0,110.123 19.259,31.537 43.552,59.707 71.915,83.392 L 27.828,454.02 c -8.475,8.185 -8.71,21.691 -0.525,30.165 8.185,8.475 21.691,8.71 30.165,0.525 0.178,-0.172 0.353,-0.347 0.525,-0.525 l 65.109,-65.109 c 40.219,23.915 86.201,36.402 132.992,36.117 132.075,0 207.339,-90.411 240.448,-144.299 20.863,-33.743 20.863,-76.379 0.001,-110.123 z m -368.448,55.062 c -0.121,-70.575 56.992,-127.885 127.567,-128.006 26.703,-0.046 52.75,8.275 74.481,23.793 l -30.976,30.976 c -13.004,-7.842 -27.887,-12.022 -43.072,-12.096 -47.128,0 -85.333,38.205 -85.333,85.333 0.074,15.185 4.254,30.068 12.096,43.072 l -30.976,30.976 c -15.468,-21.593 -23.786,-47.487 -23.787,-74.048 z m 128,128 c -26.561,-0.001 -52.455,-8.319 -74.048,-23.787 l 30.976,-30.976 c 13.004,7.842 27.887,12.022 43.072,12.096 47.128,0 85.333,-38.205 85.333,-85.333 -0.074,-15.185 -4.254,-30.068 -12.096,-43.072 l 30.976,-30.976 c 41.013,57.434 27.702,137.242 -29.732,178.255 -21.731,15.518 -47.778,23.839 -74.481,23.793 z"
   id="path1"
   style="fill:#ffffff" />
</g>
</svg>
